<svg id="Layer_1" data-name="Layer 1" xmlns="http://www.w3.org/2000/svg" viewBox="0 0 300 300"><defs><style>.cls-1{fill:#fff;}</style></defs><path class="cls-1" d="M264,258.41c-.55-.27-1.67-.3-5.14-.35a248.61,248.61,0,0,1-38.17-3.32c-26.37-4.3-82.76-32.53-83.42-39.74s46.6-34.55,67-41.79c23.81-8.45,40-10.16,42.22-10.36a3.39,3.39,0,0,0,2.6,1.21h7.24a3.44,3.44,0,0,0,3.43-3.43v-1.39a3.44,3.44,0,0,0-3.43-3.43h-3.73c3.32-1,5.38-1.78,5.58-2.08,1.1-1.6,2.54-9.09,1-14.17-.7-2.26-1.89-3.74-3.56-4.39l-.2-.08h0l0,0,0,0a4.7,4.7,0,0,1-.74-.18c-8.71-6-27.33.64-41.48,7.32-2.4-.16-25-1.31-39.85,10.69-2.6-.11-21.55-.54-38.74,9.12a148,148,0,0,0-24.09,5,8.12,8.12,0,0,0,2.34-5.58c0-3.84-7.76-22.48-13.26-28-.42-2.64-4-23.33-12.81-32.76-.27-2.57-2.54-21.75-12.2-32.38,0-3-.55-25.64-13.48-32.55l-.21-.07c-.36-.07-8.88-1.74-14,1.06a18.78,18.78,0,0,0-5.07,3.59,3.41,3.41,0,0,0-3.38-2.89H37a3.43,3.43,0,0,0-3.43,3.43v7.29A3.41,3.41,0,0,0,35.16,51c0,.89.17,3.82.22,4.32,3.74,37.91,21,73.7,33.66,97.31,14.54,27.12,43.35,53.36,49.79,58,2.94,2.11,4.29,3.62,4.38,4.91.06.89-.47,1.83-1.66,3-2.66,2.53-9.12,8.1-18.55,15.47-13.21,10.33-24,16.9-32.83,20.09-6.12,2.2-24.35,5-34.58,4.86l-.36,0-.22.22c-.21.21-.56.56-.54,5v.73h.73s.85,0,2.16,0a120.45,120.45,0,0,0,14.48-.74c21-2.91,26.75-6.39,35.48-11.65,4.68-2.82,14.69-9.82,35.84-27.18l.67-.55.63-.52c3-2.55,6.73-5.71,18,2.36,7.48,5.37,38,23,70,32.46,13.86,4.08,51.21,5.89,53,5a1.84,1.84,0,0,0,1-1.75A5.07,5.07,0,0,0,264,258.41Zm-7.64-101.1a1.93,1.93,0,0,1,1.93,1.93v1.39a1.93,1.93,0,0,1-1.93,1.93H249.1a1.93,1.93,0,0,1-1.68-1h0a1.85,1.85,0,0,1-.25-.93v-1.39a1.84,1.84,0,0,1,.12-.66h0a1.92,1.92,0,0,1,1.81-1.26Zm.67-4.53c-1.2.66-8.65,2.86-19.64,5.91-4.6,1.27-9.82,2.69-15.47,4.21-43,11.58-110.65,28.76-114.84,28.76H107a9.09,9.09,0,0,1-2.37-1.6l153.15-39.59A9.4,9.4,0,0,1,257,152.78ZM203.13,169.5,200,170.65c-22.08,8.09-41,20.29-58.12,32.27-.39.27-1.44,1-2.71,2-2.24,1.64-6.41,4.71-6.92,5a6,6,0,0,1-5.51-.18c-4.72-2.32-12.45-8.4-21.09-17a4.69,4.69,0,0,0,.82.4,1.14,1.14,0,0,0,.37,0c5.28,0,54.75-12.73,76.29-18.35C187.65,173.57,194.89,171.68,203.13,169.5ZM253,135.66,215,145l-.09-.33-.26-.93-.14-.47C233.09,134.56,246.37,132,253,135.66Zm-40,8.06.14.47.24.84.09.33-38.8,9.52-.26-.93C188.78,142.47,210.62,143.56,213,143.72ZM173,154.4l.24.84-37.3,9.16-.39-1.19C151.86,154.14,169.72,154.28,173,154.4Zm82.27-17.75a5.1,5.1,0,0,1,2.46,3.35,21.6,21.6,0,0,1,.29,8.84l-154.79,40a135,135,0,0,1-9.37-10,.58.58,0,0,1,0-.53c.47-1.27,3.7-2.77,5.57-3.4ZM92.78,177a3.06,3.06,0,0,0-.37.83,1.82,1.82,0,0,0-.08.29c-1.47-1.77-2.94-3.59-4.39-5.45a9.37,9.37,0,0,0,3,.42,31.44,31.44,0,0,0,4.84-.47c.86-.14,1.74-.31,2.63-.52A18.69,18.69,0,0,0,92.78,177Zm41.31-13.37.38,1.16-35.38,8.68C109.67,167,129.82,164.15,134.09,163.6Zm-22.76-2.19a7.14,7.14,0,0,1-2.83,5.39c-1.17-2.62-6.77-15.21-13.42-30.67l3.61-1.47C103.93,140.13,111.33,158,111.33,161.41ZM98,133.31l-3.55,1.44c-4.3-10-9-21.07-13.18-31.37l4.5-1.53C93.8,110.6,97.42,129.73,98,133.31ZM74.28,70.25c8.2,9.94,10.55,26.84,11,30.21L80.73,102c-5.26-13-9.67-24.57-11.41-31l2.05-.75,2.22-.81Q73.95,69.83,74.28,70.25ZM73.05,68l-1.94.71L69,69.54l-.21-.79C64.8,53.28,62.06,41.42,61.16,37.5,72.14,44.27,73,64.55,73.05,68ZM47.64,38A15.39,15.39,0,0,1,54.8,36.6a34.47,34.47,0,0,1,4.69.34c.61,2.7,3.66,16,8.21,33.77,4.92,19.19,37.05,91.37,39.51,96.88A50.59,50.59,0,0,1,96,171C93.65,168,76.27,141.52,63.44,107.6,53.2,80.51,45.38,44.52,44.41,40A32.75,32.75,0,0,1,47.64,38Zm-4.52,3.09c1.5,6.94,9.1,41.05,18.92,67,12.23,32.32,28.39,57.58,32.31,63.15-4.57.62-6.73.21-7.81-1.42-.23-.34-.65-.92-1.12-1.58-.91-1.26-2.16-3-2.51-3.67C46.49,92.67,42.44,44.18,42.4,43.69l0-.11A2.43,2.43,0,0,1,43.12,41.11Zm-1.51,8.38C43.73,64,51.76,105.09,79.39,160.92c-1.45-2.14-2.87-4.33-4.24-6.54C65.8,139.25,50.26,99,46,84.62,42.62,73,40.89,51,40.87,50.76v-.18A3.59,3.59,0,0,0,41.61,49.49Zm-6.54-1.36V40.84A1.93,1.93,0,0,1,37,38.91h1.46a1.93,1.93,0,0,1,1.93,1.93v7.29a1.93,1.93,0,0,1-1.73,1.92H37l-.3,0A1.91,1.91,0,0,1,35.07,48.13ZM264.81,262.72c-2.05.58-37.93-1-51.95-5.08-34.46-10.14-65-29-69.54-32.24-12.19-8.75-16.6-5-19.82-2.29l-.61.51-.67.55c-21.08,17.3-31,24.26-35.66,27.06-8.57,5.16-14.24,8.57-34.92,11.44a127.06,127.06,0,0,1-15.66.72c0-1.16.05-2.36.13-3h.24c10.5,0,28.25-2.77,34.33-5,9-3.24,19.91-9.89,33.25-20.32,9.46-7.39,15.84-12.89,18.66-15.56,1.54-1.46,2.21-2.77,2.11-4.14-.12-1.83-1.57-3.57-5-6-3.75-2.69-33.93-28.74-49.33-57.47-12.6-23.5-29.78-59.1-33.5-96.75,0-.37-.14-2.45-.19-3.65h2.75c.33,3.84,2,22.84,5.17,33.48,4.24,14.45,19.87,54.9,29.28,70.12,17.29,28,41.83,50.79,52.17,55.86a7.52,7.52,0,0,0,6.84.19c.58-.29,3.45-2.39,7.14-5.11,1.26-.92,2.29-1.69,2.68-1.95,17-11.92,35.86-24.06,57.78-32.09,9.57-3.51,16.32-5.9,21.44-7.59,5.45-1.48,10.79-2.94,15.64-4.29,4.48-.9,7-1.29,8.14-1.44a2.74,2.74,0,0,0,0,.5v1.39a3.42,3.42,0,0,0,.09.79c-3.78.39-19.57,2.42-42,10.37-17.45,6.19-68.83,34.4-68,43.35s58.56,36.82,84.67,41.08a249.66,249.66,0,0,0,38.39,3.34,34,34,0,0,1,4.49.19,3.64,3.64,0,0,1,1.62,2.58C264.93,262.65,264.81,262.71,264.81,262.72Z"/><path class="cls-1" d="M36.68,51.54a1.67,1.67,0,0,0,.32,0h-.32Z"/><path class="cls-1" d="M255.39,135.08l0,0,0,0Z"/></svg>