<svg id="Layer_1" data-name="Layer 1" xmlns="http://www.w3.org/2000/svg" viewBox="0 0 300 300"><defs><style>.cls-1{fill:#fff;}</style></defs><path class="cls-1" d="M142,261.88l.71,0v-.09Z"/><path class="cls-1" d="M141.19,261.83v.09l.7,0Z"/><path class="cls-1" d="M233.31,273.76c0-1.62-.23-5.14-2.35-5.91-1.94-.71-61.93-4.35-82.76-5.59V250c24.87-2.26,52.33-13.7,66.65-28.29,43.76-44.57,51.29-89.87,49.9-120C263.24,69,251.21,46.5,251.09,46.28l-.11-.15C232.18,25.57,192.17,21,180.51,21.71A15,15,0,0,0,168.3,29c-3.1,5.2-5,15.29,3.55,33.78,14.37,31.09,18.5,54.29,13,73-2.74,9.33-9.94,13.88-15.49,16-10.66,4.17-24.73,3.1-34.23-2.6-16.12-9.68-33.21-11.32-50.79-4.87C72.07,148.83,60.46,168.11,52,182.19c-.43.71-.84,1.4-1.26,2.08-6,0-12.09.63-15,6.33a4.78,4.78,0,0,0,.22,5.05,11.53,11.53,0,0,0,5.25,3.83c-.45,3.18,1.23,7.84,8,14.58l.37.38c12.38,13,44.14,34.77,86.29,35.89v11.91c-20.65,1.24-81,4.9-82.93,5.61-2.12.76-2.36,4.25-2.36,5.88h-.11A2.25,2.25,0,0,0,48.2,276v.14a2.25,2.25,0,0,0,2.25,2.25h7.7a2.25,2.25,0,0,0,2.25-2.25V276a2.32,2.32,0,0,0-.13-.75H223.14a2.32,2.32,0,0,0-.13.75v.14a2.25,2.25,0,0,0,2.25,2.25H233a2.25,2.25,0,0,0,2.25-2.25V276A2.25,2.25,0,0,0,233.31,273.76Zm-183.49-88c-.21.35-.41.69-.62,1a38.13,38.13,0,0,0-9.73,1.5C41.87,186.43,45.29,185.87,49.82,185.78Zm-12.91,8.56a3.22,3.22,0,0,1,.09-3c1.86-2.09,7.86-2.84,11.25-3a53.48,53.48,0,0,1-5.32,7.54A6.8,6.8,0,0,0,41.56,198C40.39,197.55,37.83,196.28,36.91,194.34Zm13.74,19.07-.41-.41C43,205.8,40.86,200.25,44,196.92c2.33-2.45,5.38-7.53,9.25-13.95,8.36-13.89,19.81-32.92,31.59-37.24A58.54,58.54,0,0,1,105.11,142a56.19,56.19,0,0,1,29.25,8.51c10,6,24.3,7.1,35.55,2.71,8.41-3.28,14.07-9.17,16.38-17,5.61-19.09,1.45-42.63-13.08-74.06-8.28-17.91-6.54-27.5-3.62-32.39a13.35,13.35,0,0,1,11-6.51c9.88-.61,50.59,3.58,69.21,23.86.78,1.48,12,23.32,13.45,54.71,1.36,29.84-6.12,74.68-49.48,118.84-15.69,16-47.47,28.13-73.91,28.26h-.58C95.84,248.88,62.34,225.71,50.65,213.41Zm8.25,62.71a.75.75,0,0,1-.75.75h-7.7a.75.75,0,0,1-.75-.75V276a.75.75,0,0,1,.75-.75h7.7a.75.75,0,0,1,.75.75Zm82.29-2.39H52.06c0-1.63.3-4.08,1.35-4.47,2.31-.65,63.37-4.39,87.78-5.84Zm.7-11.85-.7,0-3.84.23V250.36c.64,0,1.28,0,1.92,0h.61c2.24,0,4.52-.11,6.82-.29v12.07l-4-.24-.71,0Zm.8,11.85V263.42c24.4,1.45,85.46,5.19,87.75,5.84,1.07.39,1.37,2.84,1.37,4.47Zm91,2.39a.74.74,0,0,1-.75.75h-7.7a.75.75,0,0,1-.75-.75V276a.75.75,0,0,1,.75-.75H233a.74.74,0,0,1,.75.75Z"/></svg>