<svg id="Layer_1" data-name="Layer 1" xmlns="http://www.w3.org/2000/svg" viewBox="0 0 300 300"><defs><style>.cls-1{fill:#fff;}</style></defs><path class="cls-1" d="M36.34,108.59v.13l-.12-.86h0A4.41,4.41,0,0,1,36.34,108.59Z"/><path class="cls-1" d="M37.84,107.82v.73a5.82,5.82,0,0,0-.07-.73Z"/><path class="cls-1" d="M262.22,107.82a5.2,5.2,0,0,0-.07.69,1.48,1.48,0,0,0,0,.21v-.9Z"/><path class="cls-1" d="M263.78,107.82l-.14.87v-.1a4.91,4.91,0,0,1,.09-.77Z"/><path class="cls-1" d="M234.17,49.83h0Z"/><path class="cls-1" d="M55.8,149.22v.09s0,.12,0,.33A.88.88,0,0,1,55.8,149.22Z"/><path class="cls-1" d="M236.64,57.69h0q0-.76,0-1.44c0-.26,0-.52,0-.76A7.07,7.07,0,0,1,236.64,57.69Z"/><path class="cls-1" d="M287.37,177.48v-1.77a1.77,1.77,0,0,0-.83-1.51c1-3.43,5-18.52,4.61-26.79s-2.76-31-3.24-35.68h.84a2.43,2.43,0,0,0,2.4-2.46v-3.49a2.43,2.43,0,0,0-2.4-2.46h-2C287,100.5,287.83,91,287.83,84c0-9.43-1.43-18.51-3.83-24.3-2.7-6.49-15.38-12.32-20.22-12.32l-5.5-.05c-10.45-.11-20.8-.19-22.52.13a1.71,1.71,0,0,0-1.11.71,11.28,11.28,0,0,0-5.32-2.79c-4-1-101.17-1.33-108.18-1.33L108,44c-10.68,0-22.78,0-27.59,0-5.23.08-9.7,1.29-11.86,3.2a6.1,6.1,0,0,0-1.67-2,6.53,6.53,0,0,0-2.08-.75,102.38,102.38,0,0,0-20.23,0,43.56,43.56,0,0,0-18.15,5.85l-1.58.84-.12.06c-2.74,1.42-2.85,1.47-3.85,2.87-.41.57-1,1.36-2.07,2.66-4.35,5.19-2.63,39.69-2.24,46.55H11.23a2.43,2.43,0,0,0-2.4,2.46v3.49a2.44,2.44,0,0,0,2.4,2.46h3.22c-3.93,23.19,1.08,56.4,2,62.2H14.36a1.76,1.76,0,0,0-1.75,1.78v1.77a1.76,1.76,0,0,0,1.75,1.78h1.71c-3.8,14.51.82,29.34,2.23,33.32h-.53a3.25,3.25,0,0,0-3.21,3.29v3.93a3.26,3.26,0,0,0,3.21,3.29h11.9V256h8.17V223.09h224.3V256h8.18V223.09h12.41a3.42,3.42,0,0,0,3.36-3.46V216a3.45,3.45,0,0,0-2-3.13,17.44,17.44,0,0,0,3.7-8.16c.75-4.65.23-21.29-1.2-25.79A1.83,1.83,0,0,0,287.37,177.48Zm2.28-30c.4,8.06-3.74,23.4-4.59,26.45H270.32v-62.2H286.4C286.84,116,289.25,139.26,289.65,147.48ZM286.33,84c0,7.12-.85,16.74-1.1,19.36H267.39a5.33,5.33,0,0,0-5.17,4.5,5.2,5.2,0,0,0-.07.69,1.48,1.48,0,0,0,0,.21V212.58H247.75c-.08-5.92-1.47-50.23-2-61.8-.35-7.26.54-35.56,1.26-58.3.48-15.18.86-27.29.78-29.91.38-.53,2.38-2.65,9.35-2.17,7.79.53,22.68.35,25.67.31C285,66.34,286.33,75,286.33,84Zm-229.08,93a143.77,143.77,0,0,1-.08-26.29c3.39.82,14.06.74,42.52-.09,5-.15,9.85-.29,14.36-.4,24.7-.62,86.58.37,104.19,1.08,9.31.37,15.71.47,19.77.47s5.69-.09,5.73-.09l.53,0c.57,12.54,1.9,55.21,2,61H57.33C57.58,208.47,58.57,189.43,57.25,176.93Zm.27-27.66c2.1-3.31,9.83-16.53,11.75-19.8,3,1.45,12.52,1.11,28.92.38,6-.27,12.19-.55,18.47-.72,15.14-.39,49.71.34,75,.87,12.56.27,22.48.48,26.66.48,5.5,0,9.1,0,11.41.05h3.24l9.59,19.62c-2.63.07-10,.15-24.21-.42C200.67,149,138.74,148,114,148.65c-4.51.11-9.4.25-14.36.4C82.46,149.55,61.3,150.18,57.52,149.27ZM258.26,48.79l5.52.05c3.72,0,15,4.82,18.3,10.38-4.12.05-17.61.18-24.86-.32-5.71-.39-8.5.84-9.81,1.88-1.46-4.06-7.11-9.6-9.71-12C241.89,48.61,252.24,48.72,258.26,48.79ZM236.6,57.68q0-.76,0-1.44c0-.26,0-.52,0-.76a0,0,0,0,0,0,0c0-1,0-1.82,0-2.55a5.55,5.55,0,0,0-.89-3.45,1,1,0,0,1,.12-.37c3.18,2.84,10.23,9.8,10.44,13.33.12,1.92-.29,14.94-.77,30-.7,22.12-1.56,49.49-1.28,57.74l-10.1-20.64c-.07-5-.68-48.22,1.22-57.74A62.36,62.36,0,0,0,236.6,57.68ZM80.43,45.52c4.8-.07,16.9-.05,27.57,0l13.15,0c16.67,0,104.32.45,107.83,1.29a9.37,9.37,0,0,1,5.19,3h0C216,46.57,83.78,47.55,82.37,47.57a93,93,0,0,0-12.79.72C71.45,46.66,75.64,45.59,80.43,45.52ZM68.59,53.27c0-1.94,0-3.1,0-3.24.88-.28,3.84-.83,13.77-1,26.93-.35,140-.42,151.87,2.21.1.8.28,1.66.46,2.55.12.56.25,1.15.33,1.67a0,0,0,0,1,0,0v0c0,.22,0,.46,0,.7a62,62,0,0,1-1.22,15.23C232,80.8,232.47,119.86,232.6,129c-.58,0-1.57,0-2.91,0-2.31,0-5.92-.05-11.42-.05-4.16,0-14.08-.21-26.63-.48-20.19-.43-46.34-1-63.77-1-4.37,0-8.2,0-11.24.12-6.3.16-12.51.44-18.51.71-13.4.6-27.26,1.22-28.47-.39C69,126.8,68.07,115.56,68.59,53.27Zm-1.13-5,.07.13A3.21,3.21,0,0,0,67.12,50v.37c0,.48,0,1.47,0,2.9-.53,63.54.48,73.19,1.1,75.09-1.24,2.12-7.86,13.44-10.89,18.43.05-14.29.25-80.13,0-84.46-.32-4.73-.24-5.79.55-7.08C58.36,54.36,63.58,50.79,67.46,48.31ZM22.09,55c.79-1.1.79-1.1,3.32-2.41l.12-.06c.51-.26,1-.55,1.6-.85A42.07,42.07,0,0,1,44.71,46a99.87,99.87,0,0,1,19.84,0,5.37,5.37,0,0,1,1.62.58,2.36,2.36,0,0,1,.46.5c-2.51,1.6-9.22,6-10.09,7.39a5.76,5.76,0,0,0-.75,1.77c-5.58-1-28.33-.08-34.78.21C21.5,55.8,21.84,55.33,22.09,55Zm-2.33,3c3.33-.16,30.23-1.36,35.85-.29a43.18,43.18,0,0,0,.15,4.72c.32,4.63.05,83.66,0,86.8v.09s0,.12,0,.33h0v0a145.51,145.51,0,0,0,0,27.42c1.33,12.49.32,31.62.08,35.49h-18v-104a5.82,5.82,0,0,0-.07-.73,5.34,5.34,0,0,0-5.18-4.5H18.07C17.39,91.59,16.52,63,19.76,58ZM16,111.73h13.7v62.2H18C17.18,169,11.94,135.06,16,111.73Zm1.67,67.53h12v33.32H19.9C18.82,209.71,13.54,194.21,17.64,179.26Zm267,36.77v3.6a1.92,1.92,0,0,1-1.86,2H268.82v32.94h-5.18V221.59H36.34v32.94H31.17V221.59H17.77a1.75,1.75,0,0,1-1.71-1.79v-3.93a1.75,1.75,0,0,1,1.71-1.79h13.4V177.76H14.36a.27.27,0,0,1-.25-.28v-1.77a.27.27,0,0,1,.25-.28H31.17v-65.2H11.23a.94.94,0,0,1-.9-1v-3.49a.94.94,0,0,1,.9-1H32.59a3.82,3.82,0,0,1,3.66,3,4.41,4.41,0,0,1,.09.73V214.08h227.3V108.59a4.91,4.91,0,0,1,.09-.77,3.81,3.81,0,0,1,3.65-3h21.36a.93.93,0,0,1,.9,1v3.49a.93.93,0,0,1-.9,1H268.82v65.2h16.81a.27.27,0,0,1,.24.28v1.77a.26.26,0,0,1-.24.28H268.82v36.32h13.91A1.92,1.92,0,0,1,284.59,216Zm1.75-11.52a16,16,0,0,1-3.94,8.07H270.32V179.26h14.85C286.33,182.31,287.16,199.36,286.34,204.51Z"/><path class="cls-1" d="M67.27,49a3.09,3.09,0,0,0-.15,1v.37a.92.92,0,0,1-.16-.77A.87.87,0,0,1,67.27,49Z"/><path class="cls-1" d="M234.18,49.83h0Z"/></svg>